<mxfile host="app.diagrams.net" agent="Mozilla/5.0 (Macintosh; Intel Mac OS X 10_15_7) AppleWebKit/537.36 (KHTML, like Gecko) Chrome/141.0.0.0 Safari/537.36" version="28.2.8">
  <diagram name="Page-1" id="1Cg4W_GQf7pZAmzDRni_">
    <mxGraphModel dx="1426" dy="824" grid="1" gridSize="10" guides="1" tooltips="1" connect="1" arrows="1" fold="1" page="1" pageScale="1" pageWidth="827" pageHeight="1169" math="0" shadow="0">
      <root>
        <mxCell id="0" />
        <mxCell id="1" parent="0" />
        <mxCell id="Yk9Yox_eImD4n0eMve5L-28" value="Business Systems" style="whiteSpace=wrap;strokeWidth=2;" vertex="1" parent="1">
          <mxGeometry x="494" y="808" width="330" height="152" as="geometry" />
        </mxCell>
        <mxCell id="Yk9Yox_eImD4n0eMve5L-29" value="Real-Time Fraud Detection Platform" style="whiteSpace=wrap;strokeWidth=2;" vertex="1" parent="1">
          <mxGeometry x="62" y="174" width="956" height="584" as="geometry" />
        </mxCell>
        <mxCell id="Yk9Yox_eImD4n0eMve5L-30" value="Data Sources" style="whiteSpace=wrap;strokeWidth=2;" vertex="1" parent="1">
          <mxGeometry x="20" y="20" width="1002" height="104" as="geometry" />
        </mxCell>
        <mxCell id="Yk9Yox_eImD4n0eMve5L-31" value="Transaction Logs" style="whiteSpace=wrap;strokeWidth=2;" vertex="1" parent="1">
          <mxGeometry x="55" y="45" width="178" height="54" as="geometry" />
        </mxCell>
        <mxCell id="Yk9Yox_eImD4n0eMve5L-32" value="User Behaviour Data" style="whiteSpace=wrap;strokeWidth=2;" vertex="1" parent="1">
          <mxGeometry x="283" y="45" width="205" height="54" as="geometry" />
        </mxCell>
        <mxCell id="Yk9Yox_eImD4n0eMve5L-33" value="Device Metadata" style="whiteSpace=wrap;strokeWidth=2;" vertex="1" parent="1">
          <mxGeometry x="538" y="45" width="179" height="54" as="geometry" />
        </mxCell>
        <mxCell id="Yk9Yox_eImD4n0eMve5L-34" value="Third-Party Risk Feeds" style="whiteSpace=wrap;strokeWidth=2;" vertex="1" parent="1">
          <mxGeometry x="768" y="45" width="220" height="54" as="geometry" />
        </mxCell>
        <mxCell id="Yk9Yox_eImD4n0eMve5L-35" value="Real-Time Data Ingestion Pipelines" style="whiteSpace=wrap;strokeWidth=2;" vertex="1" parent="1">
          <mxGeometry x="377" y="199" width="260" height="78" as="geometry" />
        </mxCell>
        <mxCell id="Yk9Yox_eImD4n0eMve5L-36" value="Advanced Feature Engineering Workflows &#xa;(Builds Rich User Profiles)" style="whiteSpace=wrap;strokeWidth=2;" vertex="1" parent="1">
          <mxGeometry x="377" y="327" width="260" height="102" as="geometry" />
        </mxCell>
        <mxCell id="Yk9Yox_eImD4n0eMve5L-37" value="AI-Powered Anomaly Detection &#xa;(Ensemble Models, Graph Neural Networks)" style="whiteSpace=wrap;strokeWidth=2;" vertex="1" parent="1">
          <mxGeometry x="529" y="479" width="260" height="126" as="geometry" />
        </mxCell>
        <mxCell id="Yk9Yox_eImD4n0eMve5L-38" value="Real-Time Scoring API &#xa;(Instantaneous Risk Scores)" style="whiteSpace=wrap;strokeWidth=2;" vertex="1" parent="1">
          <mxGeometry x="532" y="655" width="255" height="78" as="geometry" />
        </mxCell>
        <mxCell id="Yk9Yox_eImD4n0eMve5L-39" value="Model Governance &amp;amp; &#xa;Explainability Frameworks" style="whiteSpace=wrap;strokeWidth=2;" vertex="1" parent="1">
          <mxGeometry x="731" y="339" width="248" height="78" as="geometry" />
        </mxCell>
        <mxCell id="Yk9Yox_eImD4n0eMve5L-40" value="Prioritised Alert Management &#xa;(SIEM / Case Management)" style="whiteSpace=wrap;strokeWidth=2;" vertex="1" parent="1">
          <mxGeometry x="529" y="833" width="260" height="102" as="geometry" />
        </mxCell>
        <mxCell id="Yk9Yox_eImD4n0eMve5L-41" value="" style="curved=1;startArrow=none;endArrow=block;exitX=0.5;exitY=1;entryX=0;entryY=0.21;rounded=0;" edge="1" parent="1" source="Yk9Yox_eImD4n0eMve5L-31" target="Yk9Yox_eImD4n0eMve5L-35">
          <mxGeometry relative="1" as="geometry">
            <Array as="points">
              <mxPoint x="144" y="174" />
            </Array>
          </mxGeometry>
        </mxCell>
        <mxCell id="Yk9Yox_eImD4n0eMve5L-42" value="" style="curved=1;startArrow=none;endArrow=block;exitX=0.5;exitY=1;entryX=0.22;entryY=0;rounded=0;" edge="1" parent="1" source="Yk9Yox_eImD4n0eMve5L-32" target="Yk9Yox_eImD4n0eMve5L-35">
          <mxGeometry relative="1" as="geometry">
            <Array as="points">
              <mxPoint x="386" y="174" />
            </Array>
          </mxGeometry>
        </mxCell>
        <mxCell id="Yk9Yox_eImD4n0eMve5L-43" value="" style="curved=1;startArrow=none;endArrow=block;exitX=0.5;exitY=1;entryX=0.78;entryY=0;rounded=0;" edge="1" parent="1" source="Yk9Yox_eImD4n0eMve5L-33" target="Yk9Yox_eImD4n0eMve5L-35">
          <mxGeometry relative="1" as="geometry">
            <Array as="points">
              <mxPoint x="628" y="174" />
            </Array>
          </mxGeometry>
        </mxCell>
        <mxCell id="Yk9Yox_eImD4n0eMve5L-44" value="" style="curved=1;startArrow=none;endArrow=block;exitX=0.5;exitY=1;entryX=1;entryY=0.21;rounded=0;" edge="1" parent="1" source="Yk9Yox_eImD4n0eMve5L-34" target="Yk9Yox_eImD4n0eMve5L-35">
          <mxGeometry relative="1" as="geometry">
            <Array as="points">
              <mxPoint x="878" y="174" />
            </Array>
          </mxGeometry>
        </mxCell>
        <mxCell id="Yk9Yox_eImD4n0eMve5L-45" value="" style="curved=1;startArrow=none;endArrow=block;exitX=0.5;exitY=1;entryX=0.5;entryY=0;rounded=0;" edge="1" parent="1" source="Yk9Yox_eImD4n0eMve5L-35" target="Yk9Yox_eImD4n0eMve5L-36">
          <mxGeometry relative="1" as="geometry">
            <Array as="points" />
          </mxGeometry>
        </mxCell>
        <mxCell id="Yk9Yox_eImD4n0eMve5L-46" value="" style="curved=1;startArrow=none;endArrow=block;exitX=0.5;exitY=1;entryX=0.08;entryY=0;rounded=0;" edge="1" parent="1" source="Yk9Yox_eImD4n0eMve5L-36" target="Yk9Yox_eImD4n0eMve5L-37">
          <mxGeometry relative="1" as="geometry">
            <Array as="points">
              <mxPoint x="507" y="454" />
            </Array>
          </mxGeometry>
        </mxCell>
        <mxCell id="Yk9Yox_eImD4n0eMve5L-47" value="" style="curved=1;startArrow=none;endArrow=block;exitX=0.5;exitY=1;entryX=0.5;entryY=0;rounded=0;" edge="1" parent="1" source="Yk9Yox_eImD4n0eMve5L-37" target="Yk9Yox_eImD4n0eMve5L-38">
          <mxGeometry relative="1" as="geometry">
            <Array as="points" />
          </mxGeometry>
        </mxCell>
        <mxCell id="Yk9Yox_eImD4n0eMve5L-48" value="" style="curved=1;startArrow=none;endArrow=block;exitX=0.5;exitY=1;entryX=0.5;entryY=0;rounded=0;" edge="1" parent="1" source="Yk9Yox_eImD4n0eMve5L-38" target="Yk9Yox_eImD4n0eMve5L-40">
          <mxGeometry relative="1" as="geometry">
            <Array as="points" />
          </mxGeometry>
        </mxCell>
        <mxCell id="Yk9Yox_eImD4n0eMve5L-49" value="" style="curved=1;startArrow=none;endArrow=block;exitX=0.5;exitY=1;entryX=1;entryY=0.04;rounded=0;" edge="1" parent="1" source="Yk9Yox_eImD4n0eMve5L-39" target="Yk9Yox_eImD4n0eMve5L-37">
          <mxGeometry relative="1" as="geometry">
            <Array as="points">
              <mxPoint x="856" y="454" />
            </Array>
          </mxGeometry>
        </mxCell>
      </root>
    </mxGraphModel>
  </diagram>
</mxfile>
